<?xml version="1.0" standalone="no"?>
<!DOCTYPE svg PUBLIC "-//W3C//DTD SVG 20010904//EN"
 "http://www.w3.org/TR/2001/REC-SVG-20010904/DTD/svg10.dtd">
<svg version="1.0" xmlns="http://www.w3.org/2000/svg"
 width="160.000000pt" height="160.000000pt" viewBox="0 0 160.000000 160.000000"
 preserveAspectRatio="xMidYMid meet">
<metadata>
Created by potrace 1.14, written by Peter Selinger 2001-2017
</metadata>
<g transform="translate(0.000000,160.000000) scale(0.100000,-0.100000)"
fill="#000000" stroke="none">
<path d="M719 1552 c-27 -3 -59 -46 -59 -80 0 -12 -9 -23 -19 -27 -11 -3 -22
-12 -24 -20 -4 -9 -17 -12 -44 -8 -28 3 -43 0 -58 -14 -11 -10 -36 -19 -55
-20 -41 -1 -70 -32 -70 -74 0 -16 -3 -28 -7 -28 -27 4 -43 -4 -49 -26 -4 -16
-13 -25 -26 -25 -10 0 -31 -13 -46 -29 -15 -15 -40 -31 -56 -35 -27 -7 -28 -9
-23 -54 6 -50 7 -54 30 -147 9 -33 18 -71 20 -85 3 -14 13 -54 22 -90 9 -36
18 -72 20 -80 2 -8 11 -46 20 -85 9 -38 19 -79 21 -90 2 -11 21 -87 42 -170
l37 -150 200 -82 c208 -85 224 -89 253 -73 22 12 201 90 206 90 5 0 155 67
176 79 15 8 22 39 85 361 14 74 28 142 29 150 2 8 7 33 11 55 8 45 13 69 20
105 6 27 36 186 40 210 3 19 -34 60 -54 60 -10 0 -22 17 -31 47 -20 61 -56 89
-93 72 -15 -7 -27 -17 -27 -23 0 -6 -7 -2 -15 8 -8 11 -15 17 -15 13 0 -4 -9
-3 -20 3 -11 6 -20 20 -20 31 0 11 -5 29 -10 39 -11 21 -74 55 -87 47 -15 -9
-34 9 -33 29 4 71 2 86 -16 99 -27 20 -67 18 -90 -4 -26 -23 -94 -23 -111 0
-14 19 -37 26 -74 21z"/>
</g>
</svg>
